<svg xmlns:xlink="http://www.w3.org/1999/xlink" xmlns="http://www.w3.org/2000/svg" xml:space="preserve" viewBox="0 0 550 550" version="1.1" id="Layer_1" aria-label="LinkedIn"><g><g><circle r="256" fill="#04689B" cy="275" cx="275"></circle><path fill="#FFFFFF" d="M219.2,366.5h-38.8V242.2h38.8V366.5z M198.8,226.6h-0.3c-14.1,0-23.2-9.5-23.2-21.6     c0-12.3,9.4-21.6,23.7-21.6c14.3,0,23.1,9.3,23.4,21.5C222.5,217.1,213.4,226.6,198.8,226.6z M374.6,366.5h-44v-64.3     c0-16.8-6.9-28.3-22-28.3c-11.6,0-18,7.7-21,15.2c-1.1,2.7-0.9,6.4-0.9,10.2v67.3H243c0,0,0.6-113.9,0-124.3h43.6v19.5     c2.6-8.5,16.5-20.7,38.8-20.7c27.6,0,49.3,17.9,49.3,56.4V366.5z"></path></g></g></svg>
